<svg xmlns="http://www.w3.org/2000/svg" viewBox="0 0 3750 5292" fill="none">
  <g transform="translate(0,5292) scale(0.1,-0.1)" fill="#101F32">
    <path fill-rule="evenodd" clip-rule="evenodd" d="M8710 52909 c-8633 -20 -8452 -19 -8510 -41 -35 -13 -128 -95 -145
-129 -21 -39 -6 -94 57 -224 56 -113 90 -162 122 -175 101 -40 146 -54 246
-76 63 -14 196 -34 295 -44 99 -10 212 -23 250 -29 39 -5 162 -19 275 -31 113
-11 214 -22 225 -25 11 -2 99 -13 195 -24 296 -35 616 -109 670 -157 35 -30
314 -156 440 -198 233 -78 316 -119 417 -209 81 -71 151 -119 405 -276 91 -56
132 -89 180 -143 112 -127 191 -199 258 -233 84 -43 147 -104 200 -192 62
-104 112 -163 213 -251 113 -98 100 -79 249 -376 90 -178 121 -231 167 -280
56 -60 115 -148 145 -216 8 -19 47 -136 86 -259 76 -237 111 -319 177 -416 22
-33 49 -78 60 -100 29 -57 112 -384 124 -485 5 -47 16 -130 25 -185 8 -55 21
-158 29 -230 8 -71 23 -195 34 -275 11 -80 25 -206 31 -280 12 -136 46 -292
96 -435 19 -54 29 -120 45 -290 19 -216 20 -298 19 -4155 -1 -2164 -3 -5746
-6 -7960 -11 -9106 -11 -17314 0 -19645 14 -2983 12 -5887 -3 -6665 -6 -322
-14 -904 -17 -1295 -5 -804 -15 -973 -64 -1130 -60 -191 -71 -234 -95 -353
-14 -68 -32 -183 -40 -255 -9 -72 -22 -163 -29 -202 -8 -38 -20 -108 -26 -155
-17 -122 -77 -423 -102 -505 -11 -38 -47 -117 -78 -175 -32 -58 -68 -130 -80
-160 -30 -74 -88 -247 -99 -290 -61 -248 -117 -369 -237 -516 -22 -26 -53 -72
-71 -103 -43 -74 -157 -306 -174 -353 -19 -56 -76 -125 -144 -178 -75 -58
-139 -137 -188 -232 -47 -90 -116 -165 -206 -223 -82 -53 -133 -102 -178 -172
-53 -83 -134 -156 -221 -198 -119 -58 -202 -117 -271 -195 -79 -88 -116 -109
-451 -246 -120 -50 -246 -114 -260 -133 -24 -33 -142 -103 -207 -125 -170 -55
-664 -166 -898 -202 -55 -8 -129 -22 -165 -30 -36 -8 -85 -19 -110 -25 -25 -5
-90 -20 -146 -34 -130 -31 -316 -61 -426 -70 -47 -3 -104 -8 -125 -10 -21 -2
-92 -9 -158 -15 -316 -28 -334 -33 -412 -128 -46 -57 -103 -163 -103 -193 0
-26 92 -160 139 -202 23 -21 53 -42 66 -47 41 -16 299 -21 1215 -24 487 -2
1270 -9 1740 -16 618 -9 1352 -10 2650 -4 2143 10 3549 11 6395 4 1172 -3
4363 -2 7092 2 4963 6 4963 6 5037 46 84 46 129 83 192 160 29 35 44 64 44 82
0 70 -122 190 -268 264 -45 23 -79 29 -255 46 -200 20 -529 78 -597 105 -70
28 -486 122 -725 163 -33 6 -150 29 -260 52 -214 44 -379 101 -479 165 -98 62
-231 123 -361 165 -204 66 -295 114 -406 218 -86 80 -281 218 -449 318 -75 44
-98 66 -162 150 -51 67 -192 203 -248 239 -76 50 -125 112 -267 330 -46 72
-136 188 -181 234 -24 25 -62 72 -83 104 -41 58 -109 192 -109 213 0 20 -77
198 -109 254 -18 30 -50 75 -70 100 -92 110 -158 275 -230 575 -18 72 -42 164
-55 205 -13 41 -32 100 -41 130 -9 30 -43 108 -75 175 -31 66 -69 158 -83 205
-46 155 -91 386 -112 580 -7 69 -32 262 -45 355 -11 75 -23 219 -40 460 -21
301 -31 1248 -30 2989 0 978 3 1782 6 1787 2 4 4 2205 2 4891 -3 6984 4 10943
21 11068 6 41 17 120 25 174 17 114 24 124 138 202 70 49 70 49 817 56 1374
12 3094 15 4411 7 1231 -7 1553 -14 1850 -39 147 -13 570 -67 620 -80 19 -4
69 -14 110 -20 41 -7 98 -20 125 -30 210 -75 334 -108 650 -171 367 -73 598
-134 689 -179 44 -23 98 -55 119 -71 20 -17 70 -45 110 -64 181 -84 229 -105
337 -150 148 -62 176 -80 275 -179 62 -61 107 -95 181 -135 183 -100 199 -112
349 -283 22 -24 72 -66 110 -93 98 -66 166 -135 242 -243 36 -51 86 -109 111
-130 120 -96 179 -170 258 -321 41 -79 67 -112 154 -201 115 -115 99 -88 225
-390 71 -170 125 -268 187 -343 83 -100 119 -188 197 -482 57 -214 111 -365
167 -465 33 -61 72 -153 102 -246 47 -144 62 -214 182 -840 22 -117 56 -258
76 -315 75 -222 92 -276 108 -344 39 -171 55 -286 67 -471 11 -183 14 -205 42
-274 39 -96 84 -166 154 -241 67 -70 83 -73 156 -23 96 65 167 160 210 281 25
69 26 76 15 165 -14 123 -14 299 -5 2013 4 803 9 1784 11 2180 2 396 9 1215
16 1820 12 1034 11 1197 -11 2720 -18 1271 -24 2022 -25 3485 -1 2123 -4 2232
-62 2310 -49 66 -162 152 -216 166 -52 13 -255 -139 -284 -213 -6 -16 -18 -68
-27 -118 -9 -49 -25 -142 -36 -205 -11 -63 -31 -151 -44 -195 -13 -44 -27 -96
-30 -115 -4 -19 -11 -39 -15 -45 -5 -5 -13 -35 -19 -65 -6 -30 -20 -95 -31
-145 -36 -159 -73 -378 -114 -680 -47 -336 -109 -577 -179 -698 -78 -131 -137
-277 -198 -482 -66 -228 -150 -410 -226 -492 -60 -64 -104 -137 -149 -245 -89
-213 -132 -285 -223 -382 -68 -73 -114 -135 -206 -276 -38 -58 -89 -136 -114
-173 -31 -48 -68 -87 -120 -127 -92 -70 -178 -159 -254 -262 -46 -61 -72 -85
-134 -124 -221 -134 -367 -234 -430 -292 -103 -95 -209 -156 -378 -217 -72
-26 -150 -59 -175 -73 -69 -39 -148 -91 -155 -102 -10 -15 -128 -73 -230 -113
-93 -35 -229 -75 -350 -102 -69 -16 -205 -54 -357 -101 -72 -22 -148 -52 -243
-94 -43 -20 -240 -71 -342 -90 -58 -10 -154 -20 -693 -70 -118 -12 -253 -27
-300 -35 -117 -19 -181 -25 -585 -60 -225 -20 -778 -22 -4188 -16 -2198 3
-2198 3 -2236 30 -59 40 -102 81 -147 141 -69 91 -67 84 -60 289 4 102 2 488
-3 856 -43 2776 -50 5254 -21 7700 5 413 6 2748 3 5190 -5 4642 -5 4661 38
5120 23 253 24 263 44 390 8 55 19 139 24 187 16 142 138 421 217 493 40 37
115 182 177 344 30 81 103 170 187 230 77 55 104 84 167 174 50 73 131 152
185 179 18 9 70 32 116 51 108 46 177 88 243 149 70 64 97 78 281 137 120 40
182 53 288 66 74 8 169 20 210 25 41 6 118 15 170 21 52 5 147 18 210 29 63
10 147 21 185 24 39 3 102 9 140 12 96 8 270 30 390 50 90 15 318 17 2330 20
1227 2 2237 7 2245 10 8 3 267 10 575 14 447 7 582 6 670 -5 61 -8 146 -16
190 -20 44 -3 168 -19 275 -35 258 -39 545 -67 875 -85 375 -20 840 -66 1000
-99 308 -62 377 -82 560 -163 80 -36 224 -89 265 -98 8 -2 80 -18 160 -35 266
-58 501 -120 567 -150 36 -17 103 -55 149 -86 105 -71 214 -118 429 -184 223
-70 309 -113 440 -225 30 -26 98 -71 151 -100 85 -47 133 -70 319 -148 35 -15
78 -50 145 -117 109 -110 162 -154 217 -176 105 -44 223 -140 297 -242 25 -34
73 -77 137 -123 121 -86 196 -155 274 -252 33 -41 76 -85 95 -98 61 -42 203
-191 264 -279 33 -47 84 -106 114 -130 124 -103 162 -151 270 -335 40 -69 94
-132 162 -190 54 -46 97 -106 131 -182 86 -191 104 -229 145 -300 24 -43 70
-108 102 -145 71 -85 142 -207 178 -306 90 -254 118 -312 228 -480 69 -105
149 -280 164 -360 39 -200 168 -637 203 -687 20 -30 82 -197 105 -287 45 -173
119 -563 155 -808 22 -152 70 -356 114 -481 35 -101 58 -200 115 -499 66 -347
71 -362 134 -425 28 -27 77 -65 109 -84 77 -45 107 -39 184 37 82 80 93 109
108 276 21 231 36 6812 20 8716 -6 698 -16 954 -40 999 -19 37 -131 141 -170
156 -23 10 -417 14 -1765 20 -2160 9 -23153 12 -26800 4z m1757 -5684 c12 -8
41 -48 66 -87 24 -40 75 -122 113 -183 39 -60 87 -141 109 -180 32 -58 75
-120 124 -181 29 -36 83 -163 91 -217 26 -160 31 -2279 35 -14277 2 -6823 3
-13199 2 -14170 -4 -3757 -1 -9046 6 -10570 8 -1800 2 -2260 -33 -2374 -32
-102 -81 -204 -137 -282 -75 -105 -146 -270 -173 -399 -26 -126 -153 -380
-203 -406 -15 -9 -32 -4 -80 19 -34 17 -119 58 -188 91 -177 84 -200 114 -278
356 -23 72 -53 159 -66 195 -13 36 -38 110 -56 165 -34 106 -78 207 -115 265
-25 40 -29 76 -44 417 -7 155 -5 571 5 1395 12 977 14 2167 9 7118 -6 5767 -3
6771 27 11100 8 1182 8 1766 0 2255 -7 363 -17 2154 -24 3980 -6 1826 -12
3403 -12 3505 -1 102 3 2192 8 4645 10 4776 19 6721 35 6905 7 84 16 130 34
170 13 30 37 102 52 160 47 178 56 200 133 350 93 179 122 226 148 239 11 5
103 10 205 10 149 1 190 -2 207 -14z m4098 -51 c11 -2 58 -7 105 -10 47 -4 96
-13 110 -20 39 -20 84 -72 144 -167 56 -90 79 -150 116 -296 12 -46 39 -130
60 -185 27 -73 43 -136 55 -222 9 -65 21 -146 26 -179 26 -142 21 -2142 -7
-3295 -9 -367 -7 -7730 2 -11060 10 -3256 10 -3092 4 -7915 -2 -2119 1 -4415
9 -5845 9 -1607 10 -3384 6 -5595 -5 -2206 -4 -3492 4 -4030 18 -1323 32
-2161 41 -2555 5 -226 4 -456 -1 -578 -10 -203 -10 -203 -54 -291 -77 -154
-158 -381 -205 -581 -35 -143 -98 -283 -159 -349 -38 -41 -38 -41 -230 -41
-192 0 -192 0 -240 48 -68 68 -124 169 -172 312 -44 132 -79 206 -158 333 -34
54 -63 121 -94 220 -46 142 -46 142 -57 367 -12 239 -7 1491 10 2810 18 1365
20 2171 26 9045 4 4884 2 7597 -7 9252 -10 1965 -10 2560 2 3705 8 782 14
2307 14 3578 0 2874 -24 10547 -35 11160 -15 887 -13 1232 10 1433 12 98 28
197 37 220 9 23 40 78 68 122 29 44 81 141 117 215 62 129 116 216 203 327 60
76 77 85 160 77 39 -3 79 -8 90 -10z"/>
  </g>
</svg>