<?xml version="1.0" encoding="UTF-8"?>
<svg id="Layer_1" xmlns="http://www.w3.org/2000/svg" version="1.1" xmlns:xlink="http://www.w3.org/1999/xlink" viewBox="0 0 815.59 1054.73">
  <!-- Generator: Adobe Illustrator 30.6.0, SVG Export Plug-In . SVG Version: 2.1.4 Build 109)  -->
  <defs>
    <style>
      .st0 {
        fill: none;
      }

      .st1 {
        fill: #101f32;
        fill-rule: evenodd;
      }

      .st2 {
        clip-path: url(#clippath);
      }
    </style>
    <clipPath id="clippath">
      <rect class="st0" x=".07" width="815.52" height="1054.73"/>
    </clipPath>
  </defs>
  <g class="st2">
    <path class="st1" d="M815.27,23.72c-.13-13.91-.35-19.01-.87-19.91-.41-.74-2.85-2.81-3.7-3.11-.5-.2-9.07-.28-38.39-.4-46.98-.18-503.56-.24-582.88-.08C1.68.62,5.61.6,4.35,1.04c-.76.26-2.78,1.9-3.15,2.57-.46.78-.13,1.87,1.24,4.46,1.22,2.25,1.96,3.23,2.65,3.49,2.19.8,3.17,1.08,5.35,1.51,1.37.28,4.26.68,6.42.88,2.15.2,4.61.46,5.44.58.85.1,3.52.38,5.98.62,2.46.22,4.66.44,4.9.5.24.04,2.15.26,4.24.48,3.34.36,6.82.93,9.56,1.53,3.8.33,7.55,1.29,11,2.91,8.08,2.11,15.6,6.32,22.35,11.33,9.58,7.12,18.59,15.26,25.36,25.2,6.83,10.03,11.3,21.67,14.54,33.33,2.92,10.5,5.22,21.05,4.91,31.84.12.81.24,1.83.38,3.2.41,4.31.44,5.94.41,82.81-.02,43.13-.06,114.52-.13,158.65-.24,181.49-.24,345.08,0,391.53.3,59.45.26,117.33-.07,132.84-.13,6.42-.3,18.02-.37,25.81-.1,15.1-.3,18.96-1.22,21.97-2.77,28.87-13.83,57.82-35.63,77.44-10.96,9.87-24.04,16.82-38.25,20.54-7.15,1.87-14.44,3.07-21.81,3.6-1.32.1-2.59.18-3.84.21-2.52.46-5.39.86-7.25,1-1.02.06-2.26.16-2.72.2-.46.04-2,.18-3.44.3-6.87.56-7.27.66-8.96,2.55-1,1.14-2.24,3.25-2.24,3.85,0,.52,2,3.19,3.02,4.03.5.42,1.15.83,1.44.94.89.32,6.5.42,26.42.48,10.59.04,27.62.18,37.84.32,13.44.18,29.4.2,57.64.08,46.61-.2,77.19-.22,139.08-.08,25.49.06,94.89.04,154.24-.04q107.94-.12,109.55-.92c1.83-.92,2.81-1.65,4.17-3.19.63-.7.96-1.27.96-1.63,0-1.39-2.65-3.79-5.83-5.26-.98-.46-1.72-.58-5.55-.92-3.5-.32-8.82-1.13-11.53-1.72-6.18-.73-12.39-1.12-18.56-2.06-15.21-2.33-29.92-10.51-42.16-19.68-11.86-8.89-21.44-21.31-28-34.64-3.53-7.18-7.02-15.68-8.48-24.25-.93-3.06-1.81-7.3-2.24-10.92-.15-1.38-.7-5.22-.98-7.08-.24-1.5-.5-4.37-.87-9.17-.46-6-.67-24.87-.65-59.57,0-19.49.07-35.52.13-35.62.04-.08.08-43.95.04-97.48-.07-139.2.08-218.1.46-220.59.13-.82.37-2.39.54-3.47.37-2.27.52-2.47,3-4.02q1.52-.98,17.77-1.12c29.88-.24,67.29-.3,95.93-.14,26.77.14,33.78.28,40.24.78,3.2.26,12.4,1.34,13.48,1.59.41.08,1.5.28,2.39.4.67.1,1.52.28,2.16.44.36.02.7.07,1.03.14,6.77.42,13.59,1.93,19.52,3.44,30.15,7.68,54.9,27.3,68.54,55.58,6.98,14.47,11.39,29.92,14.85,45.58.67,3.04,1.33,6.1,1.94,9.16.28,1.2.49,2.29.66,3.4.67,3.61,1.27,7.23,1.74,10.86.78,1.58,1.69,2.84,3.03,4.15,1.46,1.4,1.8,1.45,3.39.46,2.09-1.3,3.63-3.19,4.57-5.6.54-1.37.57-1.51.33-3.29-.3-2.45-.3-5.96-.11-40.12.08-16,.2-35.55.24-43.45.04-7.89.2-24.21.35-36.27.26-20.61.24-23.86-.24-54.21-.39-25.33-.52-40.3-.54-69.46-.02-42.31-.09-44.48-1.35-46.04-1.07-1.32-3.52-3.03-4.7-3.31-.03,0-.08,0-.12,0-1.9,1.4-3.68,2.92-4.61,5.16-.68,1.64-.96,3.39-1.39,5.1-.27,1.07-.71,2.15-1.11,3.23-.1.85-.29,1.66-.57,2.38-.28.62-.48,1.26-.59,1.93-.09.37-.22.73-.38,1.08-3.61,19.89-8.16,40.04-19.46,56.73-5.97,8.82-13.3,16.65-21.68,23.05-.7.77-1.28,1.21-2.36,1.83-.18.1-.35.2-.53.3-2.19,1.54-4.45,2.99-6.77,4.34-1.23.86-2.48,1.68-3.74,2.48-.6.41-1.22.78-1.89,1.13-8.12,4.86-16.82,8.46-26.01,10.76-14.28,4.55-29.12,7.02-44.08,7.13-1.78.17-4.36.38-9.15.76-4.89.4-16.92.44-91.08.32q-47.8-.06-48.63-.6c-1.28-.8-2.22-1.62-3.2-2.81-1.5-1.81-1.46-1.67-1.3-5.76.08-2.03.04-9.72-.07-17.06-.93-55.33-1.09-104.71-.46-153.46.11-8.23.13-54.77.07-103.44-.11-92.52-.11-92.9.83-102.04.15-1.53.26-2.61.35-3.45.18-2.2.49-4.4.94-6.56.08-.56.15-1.09.19-1.49.15-1.19.7-2.87,1.43-4.52,1.64-4.95,4-9.64,7.03-13.79,10.55-14.47,19.29-21.73,36.68-22.25,2.36-.53,12.22-.84,14.57-1,3.09-.21,6.26-.33,9.46-.36,2.64-.16,5.28-.22,7.94-.18.04,0,.08.01.13.02.04,0,.08-.02.12-.02,1.47-.04,2.92.02,4.36.17,2.28-.15,4.55-.29,6.78-.42,19.43-1.19,38.9-1.83,58.37-2.04,59.3-.63,126.02-1.11,175.8,36.39,22.55,16.98,39.45,39.95,51.33,65.52.83,1.5,1.55,3.08,1.88,4.16,8.91,20.3,14.72,42.1,17.78,63.77.09.09.44,2.09.54,2.19.35,1.71.64,1.81.64,1.81,0,0,1.92,4.16,3.86,2.2,1.78-1.59,3.67-7.17,4-10.49.45-4.6.78-135.77.43-173.71ZM239.06,954.19c.07,2.85-.49,5.76-1.44,8.64-.72,3.52-1.84,6.87-3.72,9.77-2.28,3.86-5.5,6.73-9.96,7.02-3.45.22-6.78-2.64-8.6-5.66,0,0-.02-.02-.03-.03-5.45-5.71-6.51-14.94-5.42-22.82-.06-1.05-.13-2.4-.22-4.16-.15-3.09-.11-11.38.11-27.8.26-19.47.3-43.19.2-141.87-.13-114.94-.07-134.95.59-221.23.17-23.56.17-35.2,0-44.94-.15-7.23-.37-42.93-.52-79.32-.13-36.39-.26-67.82-.26-69.86-.02-2.03.06-43.69.17-92.58.18-77.8.34-117.91.58-131.96-.27-4.32.33-8.88.82-12.7.8-6.21,3.89-11.12,9.77-13.63,5.56-2.38,10.44,1.84,13.38,6.27,2.55,3.84,3.71,8.16,3.98,12.61.05.17.09.32.11.45.14.77.25,3.8.33,11.3.31,4.03.31,8.09.1,12.16.2,31.91.26,104.03.32,261.09.04,135.99.07,263.06.04,282.42-.08,74.88-.02,180.29.13,210.66.15,31.54.07,42.44-.47,46.15ZM331.44,950.65c-.04.75-.07,1.36-.11,1.87.02.39.03.77.02,1.16-.09,3.39-.83,6.71-1.86,9.93-1.67,5.18-4.18,11.92-9.66,14.01-3.28,1.25-5.91.99-8.05-.27-4.76-.81-6.68-6.36-7.71-10.67-.87-3.61-1.47-7.26-1.79-10.94-.39-1.32-.44-2.22-.61-5.46-.26-4.76-.15-29.72.22-56.01.39-27.2.44-43.27.57-180.27.09-97.34.04-151.41-.15-184.4-.22-39.16-.22-51.02.04-73.84.18-15.59.3-45.98.3-71.31,0-57.28-.52-210.21-.76-222.42-.24-12.89-.28-20.03-.09-24.51,0-5.94-.33-6.64.59-10.64.15-1.8.9-3.98,1.65-5.65,2.34-5.15,10.19-10.38,15.37-7.74,8.4,4.27,9.76,19.17,9.76,19.17,0,0,1.35,15.15,1.35,23.71.08,14.38-.1,30.18-.5,45.32-.2,7.31-.15,154.06.04,220.43.22,64.89.22,61.63.09,157.75-.04,42.23.02,88,.19,116.5.2,32.03.22,67.45.13,111.51-.11,43.97-.09,69.6.09,80.32.39,26.37.69,43.07.89,50.92.11,4.5.09,9.09-.02,11.52Z"/>
  </g>
</svg>